<svg xmlns="http://www.w3.org/2000/svg" width="168" height="48" viewBox="0 0 168 48" role="img" aria-labelledby="chaching-title chaching-desc" color="#eba92c">
  <title id="chaching-title">chaching</title>
  <desc id="chaching-desc">A register slot cut into a diamond above two stacked cache layers, followed by the chaching wordmark.</desc>
  <g fill="currentColor" transform="translate(-2.5 3.2) scale(1.62)">
    <path fill-rule="evenodd" d="M12 1.5 22 6.1 12 10.7 2 6.1ZM9.2 5.35h5.6v1.5H9.2Z"/>
    <path d="m2 10.35 10 4.6 10-4.6v3.2l-10 4.6-10-4.6Z"/>
    <path d="m2 16.15 10 4.6 10-4.6v3.2L12 23.95 2 19.35Z"/>
  </g>
  <path fill="currentColor" aria-label="chaching" d="m 53.782471,35.869141 c 3.875976,0 6.736816,-2.553223 7.105957,-5.937012 h -3.276123 c -0.430664,1.891846 -1.584229,3.137695 -3.814453,3.137695 -2.814698,0 -4.475831,-2.214844 -4.475831,-5.660156 0,-3.476074 1.676514,-5.72168 4.475831,-5.72168 2.199462,0 3.522216,1.291992 3.860595,3.122315 h 3.229981 c -0.399903,-3.445313 -3.229981,-5.921631 -7.105957,-5.921631 -4.629639,0 -7.751953,3.522217 -7.751953,8.520996 0,4.968018 3.106933,8.459473 7.751953,8.459473 z m 11.954492,-9.720704 c 0,-3.014648 1.707276,-4.30664 3.922119,-4.30664 2.245606,0 3.552979,1.338135 3.552979,3.9375 V 35.5 h 3.245361 V 25.379395 c 0,-4.245118 -2.537842,-6.444581 -5.875488,-6.444581 -2.107178,0 -3.737549,0.89209 -4.844971,2.660889 V 12.58252 H 62.491602 V 35.5 h 3.245361 z m 18.183741,9.613038 c 2.799316,0 4.12207,-1.261231 4.798828,-2.568604 h 0.06152 V 35.5 h 3.199219 V 24.364258 c 0,-3.306885 -2.445556,-5.429444 -6.44458,-5.429444 -4.060547,0 -6.690674,2.184082 -6.844482,5.275635 h 3.183838 c 0.123046,-1.491943 1.538086,-2.614746 3.614502,-2.614746 2.061035,0 3.276123,1.138184 3.276123,2.707031 v 0.138428 c 0,1.184326 -1.015137,1.153565 -4.060547,1.522705 -3.306885,0.384522 -6.413819,1.184326 -6.413819,4.891113 0,3.245362 2.399414,4.906495 5.629395,4.906495 z m 0.661377,-2.614746 c -1.891846,0 -3.060791,-0.830567 -3.060791,-2.230225 0,-1.645752 1.599609,-2.276367 3.368408,-2.537842 1.722656,-0.246094 3.445313,-0.507568 3.891357,-0.861328 v 1.907227 c 0,1.999511 -1.338134,3.722168 -4.198974,3.722168 z m 16.860989,2.722412 c 3.87597,0 6.73681,-2.553223 7.10595,-5.937012 h -3.27612 c -0.43066,1.891846 -1.58423,3.137695 -3.81445,3.137695 -2.814701,0 -4.475834,-2.214844 -4.475834,-5.660156 0,-3.476074 1.676514,-5.72168 4.475834,-5.72168 2.19946,0 3.52221,1.291992 3.86059,3.122315 h 3.22998 c -0.3999,-3.445313 -3.22998,-5.921631 -7.10595,-5.921631 -4.629643,0 -7.751957,3.522217 -7.751957,8.520996 0,4.968018 3.106933,8.459473 7.751957,8.459473 z m 11.95449,-9.720704 c 0,-3.014648 1.70728,-4.30664 3.92212,-4.30664 2.2456,0 3.55298,1.338135 3.55298,3.9375 V 35.5 h 3.24536 V 25.379395 c 0,-4.245118 -2.53784,-6.444581 -5.87549,-6.444581 -2.10718,0 -3.73755,0.89209 -4.84497,2.660889 V 12.58252 H 110.1522 V 35.5 h 3.24536 z M 126.62866,35.5 h 3.24536 V 19.257812 h -3.24536 z m 9.00137,-9.351563 c 0,-3.014648 1.70727,-4.30664 3.92212,-4.30664 2.2456,0 3.55298,1.338135 3.55298,3.9375 V 35.5 h 3.24536 V 25.379395 c 0,-4.245118 -2.53785,-6.444581 -5.87549,-6.444581 -2.13794,0 -3.79907,0.922852 -4.9065,2.768555 v -2.445557 h -3.18383 V 35.5 h 3.24536 z m 20.32168,15.996094 c 4.0913,0 7.39819,-1.937988 7.39819,-6.859863 V 19.257812 h -3.19922 v 2.476319 h -0.0154 c -1.09204,-1.937988 -2.93774,-2.799317 -5.04492,-2.799317 -4.19898,0 -7.02905,3.429932 -7.02905,8.39795 0,4.952636 2.81469,8.382568 7.04443,8.382568 2.13794,0 3.89136,-0.876709 5.01416,-2.768555 h 0.0154 v 2.460938 c 0,2.630127 -1.56885,4.091308 -4.18359,4.091308 -1.96875,0 -3.42994,-0.815185 -3.84522,-2.384033 h -3.24536 c 0.43066,3.183838 3.10693,5.029541 7.09058,5.029541 z m -0.18457,-9.213135 c -2.61475,0 -4.41431,-1.96875 -4.41431,-5.614013 0,-3.645264 1.79956,-5.614014 4.41431,-5.614014 2.76855,0 4.55273,2.214844 4.55273,5.614014 0,3.39917 -1.78418,5.614013 -4.55273,5.614013 z"/>
  <path fill="currentColor" d="M127.05 12.35h4.2v4.2h-4.2Z"/>
</svg>