<svg width="244" height="48" color="#eba92c" aria-labelledby="title desc" role="img" version="1.1" viewBox="0 0 244 48" xmlns="http://www.w3.org/2000/svg">
  <title>Chaching!</title>
  <desc>The Chaching logo, a slotted diamond over two cache layers beside a geometric title-case wordmark.</desc>
  <g transform="translate(1.5 4.2) scale(1.65)" fill="currentColor">
    <path d="M12 1.5 22 6.1 12 10.7 2 6.1ZM9.2 5.35h5.6v1.5H9.2Z" fill-rule="evenodd"/>
    <path d="m2 10.35 10 4.6 10-4.6v3.2l-10 4.6-10-4.6z"/>
    <path d="m2 16.15 10 4.6 10-4.6v3.2l-10 4.6-10-4.6z"/>
  </g>
  <path d="m71.96 28.06c-2.44 2.52-4.48 3.48-7.32 3.48-5.48 0-9.92-4.56-9.92-10.08 0-2.4 0.92-4.96 2.44-6.72 1.8-2.12 4.36-3.24 7.36-3.24 3.44 0 5.76 1.12 7.76 3.72h6.12c-1.16-2.56-2.2-3.96-4.2-5.6-2.72-2.2-6.2-3.4-9.8-3.4-8.36 0-15.2 6.84-15.2 15.2 0 8.56 6.92 15.4 15.56 15.4 6.08 0 11.32-3.36 13.64-8.76zm8.75 8.24h5.32v-11.24c0-2.2 0.2-3.44 0.76-4.44 0.8-1.36 2.16-2.12 3.92-2.12 3.12 0 4.32 1.8 4.32 6.48v11.32h5.32v-12.52c0-3.24-0.4-5.04-1.48-6.68-1.48-2.28-4.04-3.52-7.2-3.52-2.32 0-4.04 0.64-5.64 2.08v-8.92h-5.32zm45.79-22.16h-4.88v2.96c-1.84-2.44-4.04-3.48-7.24-3.48-6.56 0-11.28 4.92-11.28 11.68 0 6.68 4.68 11.52 11.16 11.52 3.12 0 5.24-0.96 7.36-3.4v2.88h4.88zm-11.56 4.36c3.8 0 6.52 2.84 6.52 6.88 0 1.6-0.64 3.44-1.6 4.56-1.08 1.32-2.8 2-4.84 2-3.88 0-6.56-2.64-6.56-6.52 0-4.04 2.68-6.92 6.48-6.92zm30.75 10.52c-1.32 2.04-2.84 2.92-5.04 2.92-3.68 0-6.44-2.88-6.44-6.76 0-3.92 2.6-6.68 6.32-6.68 2.4 0 4.08 1 5.16 3.04h6c-0.76-2.24-1.48-3.4-3-4.8-2.16-2-5.08-3.12-8.16-3.12-6.56 0-11.68 5.08-11.68 11.6 0 6.44 5.28 11.6 11.84 11.6 5.2 0 9.16-2.84 11-7.8zm8.67 7.28h5.32v-11.24c0-2.2 0.2-3.44 0.76-4.44 0.8-1.36 2.16-2.12 3.92-2.12 3.12 0 4.32 1.8 4.32 6.48v11.32h5.32v-12.52c0-3.24-0.4-5.04-1.48-6.68-1.48-2.28-4.04-3.52-7.2-3.52-2.32 0-4.04 0.64-5.64 2.08v-8.92h-5.32zm23.35 0h5.32v-22.16h-5.32zm0-24.56h5.32v-5h-5.32zm8.95 24.56h5.32v-10.44c0-2.96 0.2-4.24 0.88-5.32 0.84-1.32 2.2-2.04 3.92-2.04 1.4 0 2.48 0.48 3.2 1.4 0.72 0.96 1.04 2.6 1.04 5.56v10.84h5.32v-11.88c0-3.96-0.4-5.88-1.6-7.6-1.44-2.08-3.84-3.2-6.92-3.2-2.56 0-4.28 0.72-6.24 2.64v-2.12h-4.92zm40.55-22.16v2.8c-1.68-2.24-4.04-3.32-7.24-3.32-6.28 0-10.92 4.88-10.92 11.44 0 6.84 4.56 11.76 10.88 11.76 3.12 0 5.2-1 7.28-3.44-0.2 4.76-2.24 7.08-6.2 7.08-2.48 0-4-0.64-5.56-2.36h-6.04c1.8 4.44 5.96 7.04 11.4 7.04 4 0 7.16-1.4 9.24-4.04 1.56-2.04 2.24-4.76 2.24-9v-17.96zm-6.64 4.36c3.8 0 6.4 2.72 6.4 6.8 0 4-2.48 6.64-6.32 6.64-3.8 0-6.24-2.6-6.24-6.64 0-4.08 2.44-6.8 6.16-6.8zm16.35 10.28h5.32v-22.04h-5.32zm0 7.52h5.32v-5.12h-5.32z" fill="currentColor" aria-label="Chaching!"/>
</svg>
